<svg aria-roledescription="er" role="graphics-document document" viewBox="0 0 440 465" height="465" xmlns="http://www.w3.org/2000/svg" width="440" id="container"><style>#container{font-family:"trebuchet ms",verdana,arial,sans-serif;font-size:16px;fill:#333;}#container .error-icon{fill:#552222;}#container .error-text{fill:#552222;stroke:#552222;}#container .edge-thickness-normal{stroke-width:2px;}#container .edge-thickness-thick{stroke-width:3.5px;}#container .edge-pattern-solid{stroke-dasharray:0;}#container .edge-pattern-dashed{stroke-dasharray:3;}#container .edge-pattern-dotted{stroke-dasharray:2;}#container .marker{fill:#333333;stroke:#333333;}#container .marker.cross{stroke:#333333;}#container svg{font-family:"trebuchet ms",verdana,arial,sans-serif;font-size:16px;}#container .entityBox{fill:#ECECFF;stroke:#9370DB;}#container .attributeBoxOdd{fill:#ffffff;stroke:#9370DB;}#container .attributeBoxEven{fill:#f2f2f2;stroke:#9370DB;}#container .relationshipLabelBox{fill:hsl(80, 100%, 96.2745098039%);opacity:0.7;background-color:hsl(80, 100%, 96.2745098039%);}#container .relationshipLabelBox rect{opacity:0.5;}#container .relationshipLine{stroke:#333333;}#container .entityTitleText{text-anchor:middle;font-size:18px;fill:#333;}#container :root{--mermaid-font-family:"trebuchet ms",verdana,arial,sans-serif;}</style><g></g><defs><marker orient="auto" markerHeight="18" markerWidth="18" refY="9" refX="0" id="ONLY_ONE_START"><path d="M9,0 L9,18 M15,0 L15,18" fill="none" stroke="gray"></path></marker></defs><defs><marker orient="auto" markerHeight="18" markerWidth="18" refY="9" refX="18" id="ONLY_ONE_END"><path d="M3,0 L3,18 M9,0 L9,18" fill="none" stroke="gray"></path></marker></defs><defs><marker orient="auto" markerHeight="18" markerWidth="30" refY="9" refX="0" id="ZERO_OR_ONE_START"><circle r="6" cy="9" cx="21" fill="white" stroke="gray"></circle><path d="M9,0 L9,18" fill="none" stroke="gray"></path></marker></defs><defs><marker orient="auto" markerHeight="18" markerWidth="30" refY="9" refX="30" id="ZERO_OR_ONE_END"><circle r="6" cy="9" cx="9" fill="white" stroke="gray"></circle><path d="M21,0 L21,18" fill="none" stroke="gray"></path></marker></defs><defs><marker orient="auto" markerHeight="36" markerWidth="45" refY="18" refX="18" id="ONE_OR_MORE_START"><path d="M0,18 Q 18,0 36,18 Q 18,36 0,18 M42,9 L42,27" fill="none" stroke="gray"></path></marker></defs><defs><marker orient="auto" markerHeight="36" markerWidth="45" refY="18" refX="27" id="ONE_OR_MORE_END"><path d="M3,9 L3,27 M9,18 Q27,0 45,18 Q27,36 9,18" fill="none" stroke="gray"></path></marker></defs><defs><marker orient="auto" markerHeight="36" markerWidth="57" refY="18" refX="18" id="ZERO_OR_MORE_START"><circle r="6" cy="18" cx="48" fill="white" stroke="gray"></circle><path d="M0,18 Q18,0 36,18 Q18,36 0,18" fill="none" stroke="gray"></path></marker></defs><defs><marker orient="auto" markerHeight="36" markerWidth="57" refY="18" refX="39" id="ZERO_OR_MORE_END"><circle r="6" cy="18" cx="9" fill="white" stroke="gray"></circle><path d="M21,18 Q39,0 57,18 Q39,36 21,18" fill="none" stroke="gray"></path></marker></defs><path style="stroke: gray; fill: none;" marker-start="url(#ONLY_ONE_START)" marker-end="url(#ZERO_OR_MORE_END)" d="M70,270L70,278.3333333333333C70,286.6666666666667,70,303.3333333333333,74.76190476190476,320C79.52380952380952,336.6666666666667,89.04761904761904,353.3333333333333,93.80952380952381,361.6666666666667L98.57142857142857,370" class="er relationshipLine"></path><path style="stroke: gray; fill: none;" marker-start="url(#ONLY_ONE_START)" marker-end="url(#ZERO_OR_MORE_END)" d="M277.14285714285717,270L267.61904761904765,278.3333333333333C258.09523809523813,286.6666666666667,239.04761904761904,303.3333333333333,220,320C200.95238095238096,336.6666666666667,181.90476190476193,353.3333333333333,172.38095238095238,361.6666666666667L162.85714285714286,370" class="er relationshipLine"></path><path style="stroke: gray; fill: none;" marker-start="url(#ONLY_ONE_START)" marker-end="url(#ZERO_OR_MORE_END)" d="M341.42857142857144,270L346.1904761904762,278.3333333333333C350.95238095238096,286.6666666666667,360.47619047619054,303.3333333333333,365.23809523809524,320C370,336.6666666666667,370,353.3333333333333,370,361.6666666666667L370,370" class="er relationshipLine"></path><path style="stroke: gray; fill: none;" marker-start="url(#ONLY_ONE_START)" marker-end="url(#ZERO_OR_MORE_END)" d="M320,95L320,103.33333333333333C320,111.66666666666667,320,128.33333333333334,320,145C320,161.66666666666666,320,178.33333333333334,320,186.66666666666666L320,195" class="er relationshipLine"></path><g transform="translate(20,195 )" id="entity-ESTUDIANTE-178df6ec-1b64-516f-b3c3-3e26a6eb8608"><rect height="75" width="100" y="0" x="0" class="er entityBox"></rect><text style="dominant-baseline: middle; text-anchor: middle; font-size: 12px;" transform="translate(50,37.5)" y="0" x="0" id="text-entity-ESTUDIANTE-178df6ec-1b64-516f-b3c3-3e26a6eb8608" class="er entityLabel">ESTUDIANTE</text></g><g transform="translate(70,370 )" id="entity-PRESTAMO-c2ae1af7-f8b6-5409-b9ae-ad58b73b745f"><rect height="75" width="100" y="0" x="0" class="er entityBox"></rect><text style="dominant-baseline: middle; text-anchor: middle; font-size: 12px;" transform="translate(50,37.5)" y="0" x="0" id="text-entity-PRESTAMO-c2ae1af7-f8b6-5409-b9ae-ad58b73b745f" class="er entityLabel">PRESTAMO</text></g><g transform="translate(270,195 )" id="entity-LIBRO-751881da-053f-5673-b70b-33bddab46784"><rect height="75" width="100" y="0" x="0" class="er entityBox"></rect><text style="dominant-baseline: middle; text-anchor: middle; font-size: 12px;" transform="translate(50,37.5)" y="0" x="0" id="text-entity-LIBRO-751881da-053f-5673-b70b-33bddab46784" class="er entityLabel">LIBRO</text></g><g transform="translate(320,370 )" id="entity-CATEGORIA-ae595331-34b1-5be7-8db5-1a4597688f9c"><rect height="75" width="100" y="0" x="0" class="er entityBox"></rect><text style="dominant-baseline: middle; text-anchor: middle; font-size: 12px;" transform="translate(50,37.5)" y="0" x="0" id="text-entity-CATEGORIA-ae595331-34b1-5be7-8db5-1a4597688f9c" class="er entityLabel">CATEGORIA</text></g><g transform="translate(270,20 )" id="entity-AUTOR-e9949443-e31f-5c7f-9a9b-86c3df20db93"><rect height="75" width="100" y="0" x="0" class="er entityBox"></rect><text style="dominant-baseline: middle; text-anchor: middle; font-size: 12px;" transform="translate(50,37.5)" y="0" x="0" id="text-entity-AUTOR-e9949443-e31f-5c7f-9a9b-86c3df20db93" class="er entityLabel">AUTOR</text></g><rect height="14" width="35.59375" y="315.4472351074219" x="57.69780731201172" class="er relationshipLabelBox"></rect><text style="text-anchor: middle; dominant-baseline: middle; font-size: 12px;" y="322.4472351074219" x="75.49468231201172" id="rel1" class="er relationshipLabel">realiza</text><rect height="14" width="80.59375" y="313" x="179.703125" class="er relationshipLabelBox"></rect><text style="text-anchor: middle; dominant-baseline: middle; font-size: 12px;" y="320" x="220" id="rel2" class="er relationshipLabel">es prestado en</text><rect height="14" width="64.3125" y="310.5527648925781" x="332.34906005859375" class="er relationshipLabelBox"></rect><text style="text-anchor: middle; dominant-baseline: middle; font-size: 12px;" y="317.5527648925781" x="364.50531005859375" id="rel3" class="er relationshipLabel">pertenece a</text><rect height="14" width="39.578125" y="138" x="300.2109375" class="er relationshipLabelBox"></rect><text style="text-anchor: middle; dominant-baseline: middle; font-size: 12px;" y="145" x="320" id="rel4" class="er relationshipLabel">escribe</text></svg>